<svg id="svg" version="1.1" xmlns="http://www.w3.org/2000/svg" xmlns:xlink="http://www.w3.org/1999/xlink" width="400" height="156.25" viewBox="0, 0, 400,156.25"><g id="svgg"><path id="path0" d="M335.083 53.770 C 323.919 54.640,316.993 63.841,320.448 73.211 C 321.828 76.950,324.739 79.550,330.000 81.737 C 331.054 82.176,332.231 82.677,332.616 82.851 C 333.000 83.024,333.357 83.167,333.409 83.167 C 333.461 83.167,333.822 83.313,334.210 83.492 C 334.599 83.671,335.517 84.048,336.250 84.330 C 339.962 85.758,341.000 86.621,341.000 88.275 C 340.999 91.066,336.954 92.175,332.083 90.720 C 330.118 90.132,327.334 88.670,325.695 87.364 C 325.088 86.880,324.939 86.826,324.760 87.019 C 324.644 87.146,323.024 89.082,321.161 91.322 L 317.774 95.393 318.512 96.039 C 320.985 98.202,325.221 100.339,328.833 101.248 C 329.429 101.397,330.179 101.587,330.500 101.669 C 332.384 102.151,339.597 102.205,340.345 101.743 C 340.418 101.698,340.801 101.593,341.197 101.510 C 346.296 100.441,350.664 97.167,352.551 93.000 C 354.406 88.903,354.203 83.673,352.051 80.107 C 350.247 77.119,348.052 75.618,342.167 73.350 C 340.471 72.696,338.933 72.092,338.750 72.008 C 338.567 71.923,337.704 71.577,336.833 71.239 C 332.504 69.556,331.399 68.255,332.583 66.235 C 334.065 63.706,340.452 64.021,344.667 66.830 C 344.896 66.983,345.361 67.275,345.701 67.480 L 346.319 67.852 346.647 67.468 C 346.827 67.256,347.598 66.296,348.361 65.333 C 349.124 64.371,349.874 63.433,350.027 63.250 C 351.103 61.964,352.500 60.135,352.500 60.011 C 352.500 59.809,350.115 57.857,349.083 57.214 C 345.025 54.686,339.804 53.402,335.083 53.770 M157.625 54.594 C 157.556 54.665,157.500 65.172,157.500 77.944 L 157.500 101.167 163.750 101.167 L 170.000 101.167 170.000 93.833 L 170.000 86.500 173.708 86.499 C 186.686 86.497,193.667 80.755,193.667 70.083 C 193.667 61.548,189.211 56.560,180.167 54.970 C 178.155 54.616,157.932 54.279,157.625 54.594 M201.167 77.831 L 201.167 101.167 216.252 101.167 L 231.338 101.167 231.294 96.042 L 231.250 90.917 222.459 90.874 L 213.668 90.830 213.626 72.707 L 213.583 54.583 207.375 54.540 L 201.167 54.496 201.167 77.831 M239.000 77.833 L 239.000 101.167 254.500 101.167 L 270.000 101.167 270.000 96.000 L 270.000 90.833 260.750 90.833 L 251.500 90.833 251.500 86.750 L 251.500 82.667 259.083 82.667 L 266.667 82.667 266.667 77.417 L 266.667 72.167 259.083 72.167 L 251.500 72.167 251.500 68.583 L 251.500 65.000 260.417 65.000 L 269.333 65.000 269.333 59.750 L 269.333 54.500 254.167 54.500 L 239.000 54.500 239.000 77.833 M287.238 54.686 C 287.175 54.789,287.065 55.108,286.994 55.395 C 286.923 55.682,286.677 56.517,286.447 57.250 C 285.772 59.410,284.710 62.871,284.529 63.500 C 284.437 63.821,284.162 64.721,283.918 65.500 C 283.673 66.279,283.104 68.135,282.653 69.625 C 282.202 71.115,281.464 73.552,281.013 75.042 C 280.562 76.531,279.995 78.387,279.752 79.167 C 279.510 79.946,278.936 81.821,278.476 83.333 C 278.017 84.846,277.378 86.946,277.055 88.000 C 276.733 89.054,276.371 90.254,276.250 90.667 C 276.129 91.079,275.829 92.054,275.583 92.833 C 275.337 93.612,274.961 94.850,274.748 95.583 C 274.534 96.317,274.172 97.517,273.943 98.250 C 273.713 98.983,273.415 99.940,273.279 100.375 L 273.033 101.167 279.426 101.167 L 285.820 101.167 285.992 100.542 C 286.151 99.962,286.435 98.763,287.567 93.888 C 287.805 92.863,288.000 91.907,288.000 91.763 C 288.000 91.410,300.969 91.356,301.070 91.708 C 301.103 91.823,301.287 92.629,301.481 93.500 C 301.674 94.371,302.021 95.871,302.252 96.833 C 302.483 97.796,302.786 99.107,302.925 99.748 C 303.065 100.388,303.235 100.968,303.304 101.037 C 303.373 101.106,306.351 101.182,309.923 101.206 L 316.417 101.250 316.362 100.859 C 316.332 100.645,315.968 99.370,315.554 98.026 C 315.139 96.683,314.701 95.246,314.580 94.833 C 314.459 94.421,314.085 93.183,313.749 92.083 C 313.413 90.983,313.064 89.821,312.974 89.500 C 312.883 89.179,312.672 88.504,312.505 88.000 C 312.337 87.496,311.921 86.146,311.581 85.000 C 311.240 83.854,310.867 82.617,310.751 82.250 C 310.636 81.883,310.347 80.946,310.110 80.167 C 309.872 79.387,309.368 77.737,308.989 76.500 C 308.173 73.834,308.032 73.368,307.247 70.750 C 306.917 69.650,306.583 68.563,306.504 68.333 C 306.368 67.934,306.078 66.982,304.751 62.583 C 304.419 61.483,304.083 60.396,304.003 60.167 C 303.924 59.938,303.670 59.112,303.440 58.333 C 303.209 57.554,302.859 56.373,302.661 55.708 L 302.301 54.500 294.827 54.500 C 289.498 54.500,287.320 54.553,287.238 54.686 M361.167 77.917 L 361.167 101.333 371.139 101.333 C 376.624 101.333,383.599 101.284,386.639 101.223 L 392.167 101.113 392.167 95.973 L 392.167 90.833 382.917 90.833 L 373.667 90.833 373.667 86.750 L 373.667 82.667 381.250 82.667 L 388.833 82.667 388.833 77.417 L 388.833 72.167 381.250 72.167 L 373.667 72.167 373.667 68.583 L 373.667 65.000 382.500 65.000 L 391.333 65.000 391.333 59.750 L 391.333 54.500 376.250 54.500 L 361.167 54.500 361.167 77.917 M295.724 68.917 C 295.953 69.925,296.344 71.650,296.593 72.750 C 296.841 73.850,297.409 76.248,297.856 78.079 C 298.302 79.909,298.667 81.466,298.667 81.537 C 298.667 81.608,296.829 81.667,294.583 81.667 C 289.979 81.667,290.336 81.802,290.757 80.216 C 290.898 79.685,291.117 78.800,291.244 78.250 C 291.372 77.700,291.598 76.762,291.748 76.167 C 291.898 75.571,292.083 74.783,292.159 74.417 C 292.235 74.050,292.502 72.850,292.751 71.750 C 293.161 69.941,293.734 67.256,294.167 65.112 C 294.487 63.529,294.512 63.590,295.724 68.917 M176.415 64.677 C 180.293 65.216,182.138 67.868,181.335 71.750 C 180.572 75.435,178.274 76.661,172.125 76.665 L 170.000 76.667 170.000 70.583 L 170.000 64.500 172.571 64.500 C 173.985 64.500,175.715 64.580,176.415 64.677 " stroke="none" fill="#644c74" fill-rule="evenodd"></path><path id="path1" d="M111.083 53.837 C 105.248 54.420,99.353 57.581,96.198 61.818 C 95.953 62.147,95.711 62.454,95.662 62.500 C 95.085 63.034,93.301 66.318,92.629 68.083 C 90.639 73.307,90.295 81.208,91.838 86.250 C 93.984 93.265,97.584 97.564,103.500 100.177 C 107.579 101.979,114.603 102.709,117.946 101.679 C 118.205 101.600,118.867 101.402,119.417 101.240 C 122.577 100.308,124.725 99.036,127.308 96.567 L 128.720 95.216 127.899 94.233 C 127.447 93.692,126.916 93.063,126.719 92.833 C 126.523 92.604,125.583 91.474,124.631 90.321 C 123.680 89.168,122.703 88.011,122.460 87.749 L 122.019 87.273 121.218 88.050 C 120.777 88.478,120.229 88.955,120.000 89.112 C 119.771 89.269,119.546 89.439,119.500 89.490 C 118.773 90.301,115.491 91.334,113.649 91.331 C 107.503 91.323,103.802 86.363,103.764 78.083 C 103.750 75.104,103.783 74.836,104.454 72.500 C 105.121 70.175,107.632 66.333,108.483 66.333 C 108.550 66.333,108.750 66.202,108.928 66.042 C 111.645 63.597,116.858 64.159,120.633 67.304 C 121.119 67.708,121.535 68.012,121.558 67.978 C 121.608 67.904,122.970 66.225,123.363 65.753 C 123.682 65.369,125.974 62.563,126.807 61.536 C 127.113 61.158,127.507 60.684,127.682 60.483 C 128.219 59.863,128.205 59.846,124.847 57.209 C 121.712 54.748,115.993 53.346,111.083 53.837 M7.833 77.833 L 7.833 101.167 14.083 101.167 L 20.333 101.167 20.333 93.417 L 20.333 85.667 22.636 85.667 L 24.938 85.667 26.407 88.542 C 27.214 90.123,28.455 92.542,29.164 93.917 C 29.873 95.292,31.002 97.485,31.673 98.792 L 32.893 101.167 39.967 101.167 C 45.606 101.167,47.006 101.124,46.871 100.958 C 46.698 100.746,45.000 97.824,45.000 97.739 C 45.000 97.713,44.562 96.917,44.026 95.971 C 43.490 95.024,42.802 93.800,42.498 93.250 C 41.718 91.838,41.421 91.311,40.643 89.948 C 40.267 89.289,39.657 88.188,39.288 87.500 C 38.920 86.813,38.479 86.051,38.309 85.808 C 38.139 85.564,38.000 85.300,38.000 85.221 C 38.000 85.142,37.816 84.807,37.592 84.477 C 36.827 83.351,36.863 83.153,37.949 82.498 C 43.056 79.421,45.353 72.673,43.831 65.217 C 43.115 61.706,39.955 57.822,36.857 56.644 C 36.618 56.553,36.196 56.380,35.919 56.260 C 32.530 54.783,29.688 54.524,16.708 54.510 L 7.833 54.500 7.833 77.833 M53.111 54.611 C 53.050 54.672,53.000 65.172,53.000 77.944 L 53.000 101.167 64.056 101.167 C 70.137 101.167,77.151 101.216,79.642 101.277 L 84.171 101.387 84.127 96.069 L 84.083 90.750 74.792 90.707 L 65.500 90.664 65.500 86.665 L 65.500 82.667 73.167 82.667 L 80.833 82.667 80.833 77.417 L 80.833 72.167 73.167 72.167 L 65.500 72.167 65.500 68.583 L 65.500 65.000 74.417 65.000 L 83.333 65.000 83.333 59.750 L 83.333 54.500 68.278 54.500 C 59.997 54.500,53.172 54.550,53.111 54.611 M134.833 77.917 L 134.833 101.333 141.083 101.333 L 147.333 101.333 147.333 77.917 L 147.333 54.500 141.083 54.500 L 134.833 54.500 134.833 77.917 M27.139 64.673 C 30.515 65.096,32.000 66.614,32.000 69.643 C 32.000 72.360,31.115 73.858,28.862 74.957 L 27.583 75.580 23.958 75.640 L 20.333 75.699 20.333 70.100 L 20.333 64.500 23.046 64.500 C 24.538 64.500,26.380 64.578,27.139 64.673 M171.216 76.624 C 171.931 76.655,173.056 76.655,173.716 76.624 C 174.376 76.592,173.792 76.566,172.417 76.567 C 171.042 76.567,170.501 76.593,171.216 76.624 M216.750 90.787 C 224.907 90.903,231.295 90.905,231.224 90.792 C 231.182 90.723,227.195 90.684,222.365 90.705 C 217.535 90.725,215.008 90.763,216.750 90.787 M256.137 90.792 C 258.733 90.817,262.933 90.817,265.470 90.792 C 268.007 90.766,265.883 90.745,260.750 90.745 C 255.617 90.745,253.541 90.766,256.137 90.792 M378.208 90.792 C 380.752 90.817,384.915 90.817,387.458 90.792 C 390.002 90.766,387.921 90.745,382.833 90.745 C 377.746 90.745,375.665 90.766,378.208 90.792 " stroke="none" fill="#2c2c2c" fill-rule="evenodd"></path></g></svg>